#!OML:ASF E:\inclinewalkrobotboard\Project 1\Capture day 1\Session 1\subject1.ASF
:FULLY-SPECIFIED
:DEGREES
267
root 7.21429 21.2348 3.22042 -171.761 3.51214 176.689
lowerback -1.33603 1.05089 -10.1177
upperback 2.48946 1.82065 -0.380459
thorax 3.06875 0.711239 5.34621
lowerneck -6.68589 0.145583 -2.80256
upperneck 22.5996 -2.23942 5.83584
head 8.16021 -1.33324 2.1381
rclavicle 1.0138e-014 2.18663e-014
rhumerus -42.2006 -33.3096 -64.8312
rradius 20.0115
rwrist 20.3251
rhand -17.9236 -36.9711
rfingers 7.12502
rthumb 8.34403 -66.7862
lclavicle 1.0138e-014 2.18663e-014
lhumerus -27.3224 -2.23745 88.9119
lradius 30.9796
lwrist -16.1076
lhand -26.7506 -24.025
lfingers 7.12502
lthumb -0.179226 5.95468
rfemur -33.8519 1.79022 15.1212
rtibia 61.4737
rfoot -10.7109 -8.48081
rtoes -25.0044
lfemur -18.7102 -7.73929 -25.3648
ltibia 16.3008
lfoot -13.0833 -4.69857
ltoes -19.2366
268
root 7.19898 21.2583 3.00453 -171.919 3.34106 176.668
lowerback -1.13329 0.77262 -10.0666
upperback 2.48154 1.41065 -0.182452
thorax 3.00947 0.505808 5.50894
lowerneck -7.16098 -1.69164 -2.62316
upperneck 23.7759 -1.46891 4.94567
head 8.62198 0.173227 2.07019
rclavicle -1.48095e-014 2.34566e-014
rhumerus -44.6487 -34.933 -61.4301
rradius 19.313
rwrist 22.1617
rhand -18.1833 -36.9084
rfingers 7.12502
rthumb 8.09347 -66.7334
lclavicle -1.48095e-014 2.34566e-014
lhumerus -26.5453 -2.68763 89.2427
lradius 31.7489
lwrist -16.2185
lhand -27.5461 -23.8173
lfingers 7.12502
lthumb -0.947485 6.16031
rfemur -35.8033 1.99702 14.771
rtibia 59.5108
rfoot -11.9058 -9.33913
rtoes -24.9533
lfemur -17.2641 -7.65211 -25.6524
ltibia 15.6128
lfoot -13.5432 -4.88673
ltoes -20.8968
269
root 7.18504 21.2761 2.79012 -171.936 3.09955 176.783
lowerback -0.953111 0.471763 -9.83517
upperback 2.41165 0.961213 0.0292382
thorax 2.9072 0.287268 5.58457
lowerneck -7.59174 -1.65644 -2.81663
upperneck 24.6207 -1.29637 4.82388
head 8.98822 0.263984 2.10021
rclavicle -1.3418e-015 3.18055e-015
rhumerus -47.1725 -36.2273 -58.1185
rradius 18.7517
rwrist 23.89
rhand -18.2036 -37.0022
rfingers 7.12502
rthumb 8.07379 -66.828
lclavicle -1.3418e-015 3.18055e-015
lhumerus -25.7785 -3.06078 89.5448
lradius 32.3696
lwrist -16.6423
lhand -28.3689 -23.0171
lfingers 7.12502
lthumb -1.74215 6.95553
rfemur -37.6208 2.16255 14.5386
rtibia 57.0669
rfoot -12.9047 -9.88687
rtoes -23.6344
lfemur -15.9829 -7.5229 -25.7524
ltibia 14.9083
lfoot -13.836 -5.38728
ltoes -20.8593
270
root 7.17608 21.2864 2.57526 -171.96 2.85168 176.717
lowerback -1.01473 0.187316 -9.92374
upperback 2.47633 0.586181 0.221741
thorax 3.07244 0.0833684 5.8272
lowerneck -7.67066 -1.56854 -2.96814
upperneck 24.9201 -1.12533 4.84872
head 9.10127 0.346344 2.1598
rclavicle 1.09332e-015 -7.95139e-015
rhumerus -49.5507 -37.5357 -54.8475
rradius 18.1448
rwrist 25.4509
rhand -18.224 -37.1337
rfingers 7.12502
rthumb 8.05418 -66.9602
lclavicle 1.09332e-015 -7.95139e-015
lhumerus -24.8509 -3.23866 89.689
lradius 32.9317
lwrist -16.9073
lhand -28.4437 -23.9008
lfingers 7.12502
lthumb -1.81448 6.07119
rfemur -39.2457 2.26124 14.0769
rtibia 54.2827
rfoot -13.3618 -10.199
rtoes -21.8321
lfemur -14.7466 -7.25619 -26.0319
ltibia 14.2749
lfoot -14.1469 -6.00221
ltoes -21.8145
271
root 7.17318 21.2911 2.36092 -172.106 2.73817 176.526
lowerback -1.14798 0.0118941 -10.2386
upperback 2.6371 0.385039 0.363466
thorax 3.35475 -0.0459906 6.14997
lowerneck -7.897 -1.63488 -3.02179
upperneck 25.6056 -1.15378 4.9283
head 9.3878 0.373733 2.21458
rclavicle 7.71533e-015 -1.33683e-014
rhumerus -52.3741 -39.2571 -50.9565
rradius 17.4752
rwrist 27.5364
rhand -18.4038 -37.0255
rfingers 7.12502
rthumb 7.8806 -66.8586
lclavicle 7.71533e-015 -1.33683e-014
lhumerus -24.1174 -3.87225 89.8977
lradius 33.7804
lwrist -16.9628
lhand -28.8337 -24.3119
lfingers 7.12502
lthumb -2.19106 5.65663
rfemur -40.5843 2.35228 13.4846
rtibia 51.1974
rfoot -13.9004 -9.93465
rtoes -21.7039
lfemur -13.3676 -6.85472 -26.4174
ltibia 13.6053
lfoot -14.4627 -6.60625
ltoes -22.8268
272
root 7.1742 21.293 2.14922 -172.155 2.62004 176.581
lowerback -1.26783 -0.199921 -10.3312
upperback 2.74651 0.115465 0.598128
thorax 3.58948 -0.204468 6.44171
lowerneck -7.63749 -1.54746 -3.0261
upperneck 25.448 -1.01904 4.84364
head 9.27624 0.419048 2.19391
rclavicle -1.3977e-015 -1.51698e-014
rhumerus -55.3977 -40.8297 -46.7617
rradius 16.8626
rwrist 29.9677
rhand -18.3144 -36.8051
rfingers 7.12502
rthumb 7.96692 -66.635
lclavicle -1.3977e-015 -1.51698e-014
lhumerus -23.5515 -4.44123 90.1568
lradius 34.7791
lwrist -16.8925
lhand -29.007 -24.0469
lfingers 7.12502
lthumb -2.35851 5.91982
rfemur -41.7583 2.4818 13.1882
rtibia 47.8838
rfoot -14.3467 -9.22018
rtoes -21.2869
lfemur -12.1769 -6.4159 -26.4475
ltibia 13.0483
lfoot -14.8065 -7.16535
ltoes -23.9993
273
root 7.17556 21.2909 1.93537 -172.125 2.511 176.632
lowerback -1.41031 -0.448891 -10.4051
upperback 2.84119 -0.203112 0.832758
thorax 3.83448 -0.387562 6.71945
lowerneck -7.95519 -1.47802 -3.007
upperneck 26.1257 -0.800316 4.60139
head 9.56727 0.527221 2.14945
rclavicle -4.75841e-015 -1.1778e-014
rhumerus -58.512 -42.3752 -42.3045
rradius 16.1622
rwrist 32.5985
rhand -18.1962 -36.4906
rfingers 7.12502
rthumb 8.081 -66.3161
lclavicle -4.75841e-015 -1.1778e-014
lhumerus -22.763 -4.70768 90.3231
lradius 35.2898
lwrist -16.8957
lhand -29.5097 -24.5953
lfingers 7.12502
lthumb -2.84399 5.36551
rfemur -42.7952 2.58533 12.9016
rtibia 44.4388
rfoot -14.1769 -8.14918
rtoes -22.0219
lfemur -11.1073 -5.95121 -26.4709
ltibia 12.5981
lfoot -15.2303 -7.73554
ltoes -25.2456
274
root 7.17952 21.2858 1.72018 -172.187 2.47732 176.544
lowerback -1.49975 -0.550738 -10.5273
upperback 2.9579 -0.315977 0.889423
thorax 4.035 -0.462401 6.8438
lowerneck -7.93329 -1.48889 -3.08562
upperneck 26.4107 -0.806419 4.80159
head 9.66624 0.556923 2.24191
rclavicle -5.61567e-015 -4.87022e-015
rhumerus -62.4507 -44.1368 -37.2099
rradius 15.5131
rwrist 35.3943
rhand -18.2752 -36.196
rfingers 7.12502
rthumb 8.00478 -66.0244
lclavicle -5.61567e-015 -4.87022e-015
lhumerus -21.7584 -5.45406 90.4079
lradius 35.3442
lwrist -16.5855
lhand -29.9415 -24.9183
lfingers 7.12502
lthumb -3.26098 5.03653
rfemur -43.5913 2.62452 12.5819
rtibia 40.926
rfoot -13.3584 -6.79426
rtoes -24.5342
lfemur -9.87418 -5.5682 -26.6578
ltibia 12.0873
lfoot -15.7356 -8.26001
ltoes -26.0988
275
root 7.19047 21.2788 1.50384 -172.218 2.40631 176.502
lowerback -1.47834 -0.64854 -10.5192
upperback 3.01538 -0.439827 0.838083
thorax 4.10804 -0.52719 6.77787
lowerneck -7.80089 -1.50936 -3.04665
upperneck 26.5781 -0.877745 5.09958
head 9.70449 0.57577 2.33832
rclavicle 1.20265e-014 5.96354e-016
rhumerus -66.4895 -45.3926 -32.5895
rradius 15.163
rwrist 37.6105
rhand -18.0422 -36.2895
rfingers 7.12502
rthumb 8.22959 -66.1093
lclavicle 1.20265e-014 5.96354e-016
lhumerus -21.2235 -6.31396 90.273
lradius 35.7215
lwrist -16.136
lhand -29.8667 -24.9356
lfingers 7.12502
lthumb -3.18876 5.02028
rfemur -44.2089 2.63372 12.4375
rtibia 37.5198
rfoot -12.2164 -5.76548
rtoes -29.028
lfemur -8.64735 -5.42938 -26.7635
ltibia 11.542
lfoot -16.2847 -8.64082
ltoes -26.687
